<svg width="61" height="60" viewBox="0 0 61 60" fill="none" xmlns="http://www.w3.org/2000/svg">
<g clip-path="url(#clip0_413_2619)">
<path d="M8.05747 9.80078V50.3008C3.15747 44.9008 0.157471 37.8008 0.157471 30.0008C0.157471 22.2008 3.15747 15.1008 8.05747 9.80078Z" fill="white"/>
<path d="M11.2574 14.1992L28.5574 48.8992H11.2574V14.1992Z" fill="white"/>
<path d="M30.1575 44.9996L13.1575 11.0996H47.1575L30.1575 44.9996Z" fill="white"/>
<path d="M30.1575 0C37.9575 0 45.0575 3 50.3575 7.9H9.95746C15.2575 3 22.3575 0 30.1575 0Z" fill="white"/>
<path d="M49.0574 48.8992H31.7574L49.0574 14.1992V48.8992Z" fill="white"/>
<path d="M50.3575 52.0996C45.0575 56.9996 37.9575 59.9996 30.1575 59.9996C22.3575 59.9996 15.2575 56.9996 9.95746 52.0996H50.3575Z" fill="white"/>
<path d="M52.2574 50.2008V9.80078C57.1574 15.1008 60.1574 22.2008 60.1574 30.0008C60.1574 37.8008 57.1574 44.9008 52.2574 50.2008Z" fill="white"/>
<path d="M11.2574 14.1992L28.5574 48.8992H11.2574V14.1992Z" fill="white"/>
<path d="M30.1575 44.9996L13.1575 11.0996H47.1575L30.1575 44.9996Z" fill="white"/>
<path d="M31.7574 48.8992L49.0574 14.1992V48.8992H31.7574Z" fill="white"/>
<path d="M13.1575 11.0996H47.1575L30.1575 44.9996L13.1575 11.0996Z" fill="white"/>
</g>
<defs>
<clipPath id="clip0_413_2619">
<rect width="60" height="60" fill="white" transform="translate(0.157471)"/>
</clipPath>
</defs>
</svg>
