<svg width="61" height="60" viewBox="0 0 61 60" fill="none" xmlns="http://www.w3.org/2000/svg">
<path d="M30.6676 1.80018C34.475 1.80018 38.1654 2.54725 41.6487 4.0144C43.3229 4.72547 44.934 5.59856 46.4372 6.61566C47.9313 7.62376 49.3355 8.78488 50.6136 10.063C51.8917 11.3411 53.0528 12.7453 54.0609 14.2394C55.078 15.7426 55.9511 17.3627 56.6622 19.0279C58.1293 22.5023 58.8764 26.1926 58.8764 30.009C58.8764 33.8254 58.1293 37.5068 56.6622 40.9901C55.9511 42.6643 55.078 44.2754 54.0609 45.7786C53.0528 47.2727 51.8917 48.6769 50.6136 49.955C49.3355 51.2331 47.9313 52.3942 46.4372 53.4023C44.934 54.4194 43.3139 55.2925 41.6487 56.0036C38.1744 57.4707 34.484 58.2178 30.6676 58.2178C26.8602 58.2178 23.1699 57.4707 19.6865 56.0036C18.0123 55.2925 16.4012 54.4194 14.898 53.4023C13.4039 52.3942 11.9997 51.2331 10.7216 49.955C9.44348 48.6769 8.28236 47.2727 7.27426 45.7786C6.25716 44.2754 5.38407 42.6553 4.673 40.9901C3.21486 37.5068 2.46778 33.8074 2.46778 30C2.46778 26.1926 3.21486 22.5023 4.682 19.0189C5.39307 17.3447 6.26616 15.7336 7.28326 14.2304C8.29137 12.7363 9.45248 11.3321 10.7306 10.054C12.0087 8.77588 13.4129 7.61476 14.907 6.60666C16.4102 5.58956 18.0303 4.71647 19.6955 4.0054C23.1699 2.54725 26.8602 1.80018 30.6676 1.80018ZM30.6676 0C14.0969 0 0.667603 13.4293 0.667603 30C0.667603 46.5707 14.0969 60 30.6676 60C47.2383 60 60.6676 46.5707 60.6676 30C60.6766 13.4293 47.2383 0 30.6676 0Z" fill="white"/>
<path d="M5.67224 29.9994C5.67224 39.8914 11.4238 48.4513 19.7677 52.5017L7.84146 19.8284C6.44632 22.9337 5.67224 26.381 5.67224 29.9994ZM47.5534 28.7393C47.5534 25.652 46.4463 23.5098 45.4922 21.8446C44.2231 19.7834 43.035 18.0372 43.035 15.985C43.035 13.6898 44.7812 11.5476 47.2294 11.5476C47.3374 11.5476 47.4454 11.5566 47.5534 11.5656C43.107 7.48816 37.1754 5.00391 30.6677 5.00391C21.9369 5.00391 14.2501 9.48636 9.77665 16.273C10.3617 16.291 10.9198 16.3 11.3878 16.3C13.9981 16.3 18.0485 15.985 18.0485 15.985C19.3986 15.904 19.5516 17.8842 18.2105 18.0462C18.2105 18.0462 16.8514 18.2082 15.3482 18.2802L24.4571 45.3639L29.9297 28.9553L26.0323 18.2802C24.6821 18.1992 23.413 18.0462 23.413 18.0462C22.0629 17.9652 22.2249 15.904 23.575 15.985C23.575 15.985 27.7064 16.3 30.1637 16.3C32.774 16.3 36.8244 15.985 36.8244 15.985C38.1745 15.904 38.3275 17.8842 36.9864 18.0462C36.9864 18.0462 35.6272 18.2082 34.1241 18.2802L43.152 45.1569L45.7353 36.9841C46.8784 33.4107 47.5534 30.8815 47.5534 28.7393ZM31.1088 32.1866L23.602 53.9868C25.8433 54.6439 28.2105 55.0039 30.6677 55.0039C33.575 55.0039 36.3743 54.4999 38.9666 53.5908C38.9036 53.4828 38.8406 53.3657 38.7866 53.2487L31.1088 32.1866ZM52.6119 18.0102C52.72 18.8023 52.783 19.6574 52.783 20.5845C52.783 23.1227 52.3059 25.976 50.8838 29.5404L43.242 51.6106C50.6767 47.2811 55.6722 39.2253 55.6722 29.9994C55.6722 25.652 54.5651 21.5656 52.6119 18.0102Z" fill="white"/>
</svg>
